<?xml version="1.0" standalone="no"?>
<!DOCTYPE svg PUBLIC "-//W3C//DTD SVG 20010904//EN"
 "http://www.w3.org/TR/2001/REC-SVG-20010904/DTD/svg10.dtd">
<svg version="1.0" xmlns="http://www.w3.org/2000/svg"
 width="393.000000pt" height="393.000000pt" viewBox="0 0 393.000000 393.000000"
 preserveAspectRatio="xMidYMid meet">
<metadata>
Created by potrace 1.11, written by Peter Selinger 2001-2013
</metadata>
<g transform="translate(0.000000,393.000000) scale(0.100000,-0.100000)"
fill="#000000" stroke="none">
<path d="M1716 3796 c-15 -67 -29 -132 -31 -146 -3 -14 -25 -112 -49 -217 -23
-106 -40 -194 -37 -194 3 -1 40 -3 81 -4 41 -2 77 -4 80 -5 3 -1 9 -2 13 -1 8
1 63 -8 143 -25 12 -2 40 -10 63 -18 22 -9 41 -13 41 -10 0 2 17 -4 38 -15 20
-10 40 -20 44 -20 22 -5 109 -51 153 -81 277 -192 279 -466 5 -672 -39 -29
-211 -118 -229 -118 -6 0 -11 -5 -11 -12 0 -6 -3 -9 -6 -5 -4 3 -19 0 -35 -9
-16 -8 -29 -12 -29 -9 0 3 -11 -2 -25 -11 -14 -9 -25 -13 -25 -10 0 4 -15 -1
-32 -11 -18 -9 -37 -17 -43 -18 -5 -1 -19 -5 -30 -9 -11 -5 -33 -13 -50 -20
-51 -19 -277 -135 -295 -151 -9 -8 -20 -15 -24 -15 -4 0 -13 -6 -21 -12 -7 -7
-26 -22 -41 -33 -57 -40 -232 -205 -217 -205 2 0 -3 -8 -13 -18 -28 -28 -105
-149 -157 -250 -51 -99 -52 -113 -4 -128 12 -4 33 -15 47 -24 14 -10 48 -30
75 -46 28 -15 64 -36 80 -46 17 -10 46 -26 65 -35 19 -10 37 -21 38 -25 2 -5
10 -8 18 -8 8 0 14 -5 14 -11 0 -5 4 -8 9 -4 5 3 12 1 16 -4 3 -5 18 -16 33
-24 15 -7 44 -23 65 -35 20 -12 54 -32 75 -43 20 -12 56 -32 79 -46 l41 -24
19 28 c11 15 36 58 57 95 20 38 41 68 46 68 6 0 10 6 10 13 0 12 29 47 97 120
97 103 288 217 458 272 28 9 59 20 70 24 31 13 88 32 106 36 36 8 270 106 334
140 83 44 195 121 247 169 20 19 39 31 42 28 3 -3 6 -1 6 4 0 5 25 36 55 69
30 33 55 63 55 67 0 4 6 13 13 20 42 44 130 226 156 323 34 130 35 310 3 433
-76 285 -288 535 -618 730 -131 77 -332 172 -399 188 -16 4 -35 10 -40 15 -6
4 -22 10 -35 13 -24 4 -39 9 -77 22 -10 4 -31 8 -46 10 -16 2 -37 9 -48 15
-12 6 -23 8 -26 6 -2 -3 -19 -1 -36 4 -33 9 -98 20 -152 25 -16 1 -30 3 -30 4
0 1 -34 3 -76 4 l-77 3 -26 -121z"/>
<path d="M964 1149 c-3 -5 -9 -7 -14 -4 -5 3 -39 -8 -76 -25 -86 -39 -186
-139 -232 -232 -18 -37 -35 -75 -37 -85 -2 -10 -8 -29 -13 -43 -10 -25 -9
-155 2 -198 15 -65 79 -154 151 -207 21 -17 55 -48 75 -70 58 -65 153 -166
189 -201 l34 -34 37 33 37 32 -22 20 c-12 11 -54 49 -93 84 -39 35 -69 67 -67
71 3 4 19 4 37 1 78 -17 211 42 291 129 96 103 146 216 152 342 8 170 -87 308
-257 372 -51 19 -185 29 -194 15z m198 -119 c91 -45 131 -111 135 -220 4 -128
-45 -239 -152 -342 -60 -58 -119 -83 -190 -82 -74 1 -105 6 -105 17 0 4 -4 6
-9 3 -14 -9 -90 63 -114 108 -17 33 -21 57 -21 126 0 85 3 101 23 153 29 74
145 217 178 217 6 0 13 4 15 8 2 5 21 15 42 24 57 22 141 17 198 -12z"/>
</g>
</svg>
